<svg width="106" height="132" viewBox="0 0 106 132" fill="none" xmlns="http://www.w3.org/2000/svg">
<path fill-rule="evenodd" clip-rule="evenodd" d="M60.9012 0.901872C58.4406 0.0387344 56.015 1.3987 53.287 4.0048C50.5252 6.64316 47.1653 10.8431 42.7544 16.3567L42.7544 16.3567L42.7108 16.4112L9.67831 57.7018L9.63349 57.7578L9.63342 57.7579C6.28608 61.9421 3.72023 65.1494 2.20437 67.7373C0.686671 70.3284 0.0789967 72.5354 1.06685 74.5907C2.0547 76.646 4.15765 77.5502 7.12903 77.9837C10.0968 78.4167 14.2041 78.4167 19.5623 78.4167H19.5624H19.6344H29.3335C32.1832 78.4167 34.245 78.4183 35.8173 78.6297C37.368 78.8381 38.3298 79.2383 39.0459 79.9544C39.762 80.6705 40.1621 81.6323 40.3706 83.183C40.582 84.7553 40.5836 86.817 40.5836 89.6667V107.624V107.694V107.694C40.5836 114.755 40.5836 120.133 41.092 123.919C41.5942 127.658 42.6386 130.235 45.0993 131.098C47.5599 131.961 49.9854 130.601 52.7134 127.995C55.4752 125.357 58.8351 121.157 63.2458 115.644L63.2896 115.589L96.3221 74.2982L96.367 74.2421L96.3673 74.2417C99.7145 70.0577 102.28 66.8506 103.796 64.2627C105.314 61.6716 105.921 59.4647 104.934 57.4093C103.946 55.354 101.843 54.4498 98.8714 54.0163C95.9037 53.5833 91.7964 53.5833 86.4381 53.5833H86.4381H86.3661H76.6669C73.8173 53.5833 71.7555 53.5817 70.1832 53.3704C68.6325 53.1619 67.6707 52.7618 66.9546 52.0457C66.2385 51.3296 65.8384 50.3678 65.6299 48.817C65.4185 47.2447 65.4169 45.183 65.4169 42.3333V24.3761V24.3065C65.4169 17.2456 65.4169 11.8669 64.9085 8.08139C64.4063 4.34218 63.3618 1.76501 60.9012 0.901872Z" fill="url(#paint0_linear_2444_364)"/>
<defs>
<linearGradient id="paint0_linear_2444_364" x1="53.5891" y1="131.357" x2="117.967" y2="77.2716" gradientUnits="userSpaceOnUse">
<stop stop-color="#FFC657"/>
<stop offset="1" stop-color="#FFD977"/>
</linearGradient>
</defs>
</svg>
